<svg viewBox="0 0 157 20" xmlns="http://www.w3.org/2000/svg">
<path d="M5.58 15.126C4.704 15.126 3.912 14.976 3.204 14.676C2.508 14.376 1.956 13.944 1.548 13.38C1.14 12.816 0.93 12.15 0.918 11.382H3.618C3.654 11.898 3.834 12.306 4.158 12.606C4.494 12.906 4.95 13.056 5.526 13.056C6.114 13.056 6.576 12.918 6.912 12.642C7.248 12.354 7.416 11.982 7.416 11.526C7.416 11.154 7.302 10.848 7.074 10.608C6.846 10.368 6.558 10.182 6.21 10.05C5.874 9.906 5.406 9.75 4.806 9.582C3.99 9.342 3.324 9.108 2.808 8.88C2.304 8.64 1.866 8.286 1.494 7.818C1.134 7.338 0.954 6.702 0.954 5.91C0.954 5.166 1.14 4.518 1.512 3.966C1.884 3.414 2.406 2.994 3.078 2.706C3.75 2.406 4.518 2.256 5.382 2.256C6.678 2.256 7.728 2.574 8.532 3.21C9.348 3.834 9.798 4.71 9.882 5.838H7.11C7.086 5.406 6.9 5.052 6.552 4.776C6.216 4.488 5.766 4.344 5.202 4.344C4.71 4.344 4.314 4.47 4.014 4.722C3.726 4.974 3.582 5.34 3.582 5.82C3.582 6.156 3.69 6.438 3.906 6.666C4.134 6.882 4.41 7.062 4.734 7.206C5.07 7.338 5.538 7.494 6.138 7.674C6.954 7.914 7.62 8.154 8.136 8.394C8.652 8.634 9.096 8.994 9.468 9.474C9.84 9.954 10.026 10.584 10.026 11.364C10.026 12.036 9.852 12.66 9.504 13.236C9.156 13.812 8.646 14.274 7.974 14.622C7.302 14.958 6.504 15.126 5.58 15.126ZM17.8628 15L14.4788 10.752V15H11.9588V1.68H14.4788V9.258L17.8268 5.028H21.1028L16.7108 10.032L21.1388 15H17.8628ZM23.4965 3.84C23.0525 3.84 22.6805 3.702 22.3805 3.426C22.0925 3.138 21.9485 2.784 21.9485 2.364C21.9485 1.944 22.0925 1.596 22.3805 1.32C22.6805 1.032 23.0525 0.887999 23.4965 0.887999C23.9405 0.887999 24.3065 1.032 24.5945 1.32C24.8945 1.596 25.0445 1.944 25.0445 2.364C25.0445 2.784 24.8945 3.138 24.5945 3.426C24.3065 3.702 23.9405 3.84 23.4965 3.84ZM24.7385 5.028V15H22.2185V5.028H24.7385ZM29.4962 1.68V15H26.9762V1.68H29.4962ZM34.254 1.68V15H31.734V1.68H34.254ZM37.7698 3.84C37.3258 3.84 36.9538 3.702 36.6538 3.426C36.3658 3.138 36.2218 2.784 36.2218 2.364C36.2218 1.944 36.3658 1.596 36.6538 1.32C36.9538 1.032 37.3258 0.887999 37.7698 0.887999C38.2138 0.887999 38.5798 1.032 38.8678 1.32C39.1678 1.596 39.3178 1.944 39.3178 2.364C39.3178 2.784 39.1678 3.138 38.8678 3.426C38.5798 3.702 38.2138 3.84 37.7698 3.84ZM39.0118 5.028V15H36.4918V5.028H39.0118ZM46.7755 4.884C47.9635 4.884 48.9235 5.262 49.6555 6.018C50.3875 6.762 50.7535 7.806 50.7535 9.15V15H48.2335V9.492C48.2335 8.7 48.0355 8.094 47.6395 7.674C47.2435 7.242 46.7035 7.026 46.0195 7.026C45.3235 7.026 44.7715 7.242 44.3635 7.674C43.9675 8.094 43.7695 8.7 43.7695 9.492V15H41.2495V5.028H43.7695V6.27C44.1055 5.838 44.5315 5.502 45.0475 5.262C45.5755 5.01 46.1515 4.884 46.7755 4.884ZM56.8039 4.866C57.5479 4.866 58.2019 5.016 58.7659 5.316C59.3299 5.604 59.7739 5.982 60.0979 6.45V5.028H62.6359V15.072C62.6359 15.996 62.4499 16.818 62.0779 17.538C61.7059 18.27 61.1479 18.846 60.4039 19.266C59.6599 19.698 58.7599 19.914 57.7039 19.914C56.2879 19.914 55.1239 19.584 54.2119 18.924C53.3119 18.264 52.8019 17.364 52.6819 16.224H55.1839C55.3159 16.68 55.5979 17.04 56.0299 17.304C56.4739 17.58 57.0079 17.718 57.6319 17.718C58.3639 17.718 58.9579 17.496 59.4139 17.052C59.8699 16.62 60.0979 15.96 60.0979 15.072V13.524C59.7739 13.992 59.3239 14.382 58.7479 14.694C58.1839 15.006 57.5359 15.162 56.8039 15.162C55.9639 15.162 55.1959 14.946 54.4999 14.514C53.8039 14.082 53.2519 13.476 52.8439 12.696C52.4479 11.904 52.2499 10.998 52.2499 9.978C52.2499 8.97 52.4479 8.076 52.8439 7.296C53.2519 6.516 53.7979 5.916 54.4819 5.496C55.1779 5.076 55.9519 4.866 56.8039 4.866ZM60.0979 10.014C60.0979 9.402 59.9779 8.88 59.7379 8.448C59.4979 8.004 59.1739 7.668 58.7659 7.44C58.3579 7.2 57.9199 7.08 57.4519 7.08C56.9839 7.08 56.5519 7.194 56.1559 7.422C55.7599 7.65 55.4359 7.986 55.1839 8.43C54.9439 8.862 54.8239 9.378 54.8239 9.978C54.8239 10.578 54.9439 11.106 55.1839 11.562C55.4359 12.006 55.7599 12.348 56.1559 12.588C56.5639 12.828 56.9959 12.948 57.4519 12.948C57.9199 12.948 58.3579 12.834 58.7659 12.606C59.1739 12.366 59.4979 12.03 59.7379 11.598C59.9779 11.154 60.0979 10.626 60.0979 10.014ZM73.2742 2.436C74.5942 2.436 75.7522 2.694 76.7482 3.21C77.7562 3.726 78.5302 4.464 79.0702 5.424C79.6222 6.372 79.8982 7.476 79.8982 8.736C79.8982 9.996 79.6222 11.1 79.0702 12.048C78.5302 12.984 77.7562 13.71 76.7482 14.226C75.7522 14.742 74.5942 15 73.2742 15H68.8822V2.436H73.2742ZM73.1842 12.858C74.5042 12.858 75.5242 12.498 76.2442 11.778C76.9642 11.058 77.3242 10.044 77.3242 8.736C77.3242 7.428 76.9642 6.408 76.2442 5.676C75.5242 4.932 74.5042 4.56 73.1842 4.56H71.4022V12.858H73.1842ZM84.0526 6.576C84.3766 6.048 84.7966 5.634 85.3126 5.334C85.8406 5.034 86.4406 4.884 87.1126 4.884V7.53H86.4466C85.6546 7.53 85.0546 7.716 84.6466 8.088C84.2506 8.46 84.0526 9.108 84.0526 10.032V15H81.5326V5.028H84.0526V6.576ZM92.9859 15.162C92.0259 15.162 91.1619 14.952 90.3939 14.532C89.6259 14.1 89.0199 13.494 88.5759 12.714C88.1439 11.934 87.9279 11.034 87.9279 10.014C87.9279 8.994 88.1499 8.094 88.5939 7.314C89.0499 6.534 89.6679 5.934 90.4479 5.514C91.2279 5.082 92.0979 4.866 93.0579 4.866C94.0179 4.866 94.8879 5.082 95.6679 5.514C96.4479 5.934 97.0599 6.534 97.5039 7.314C97.9599 8.094 98.1879 8.994 98.1879 10.014C98.1879 11.034 97.9539 11.934 97.4859 12.714C97.0299 13.494 96.4059 14.1 95.6139 14.532C94.8339 14.952 93.9579 15.162 92.9859 15.162ZM92.9859 12.966C93.4419 12.966 93.8679 12.858 94.2639 12.642C94.6719 12.414 94.9959 12.078 95.2359 11.634C95.4759 11.19 95.5959 10.65 95.5959 10.014C95.5959 9.066 95.3439 8.34 94.8399 7.836C94.3479 7.32 93.7419 7.062 93.0219 7.062C92.3019 7.062 91.6959 7.32 91.2039 7.836C90.7239 8.34 90.4839 9.066 90.4839 10.014C90.4839 10.962 90.7179 11.694 91.1859 12.21C91.6659 12.714 92.2659 12.966 92.9859 12.966ZM105.31 4.884C106.498 4.884 107.458 5.262 108.19 6.018C108.922 6.762 109.288 7.806 109.288 9.15V15H106.768V9.492C106.768 8.7 106.57 8.094 106.174 7.674C105.778 7.242 105.238 7.026 104.554 7.026C103.858 7.026 103.306 7.242 102.898 7.674C102.502 8.094 102.304 8.7 102.304 9.492V15H99.7844V5.028H102.304V6.27C102.64 5.838 103.066 5.502 103.582 5.262C104.11 5.01 104.686 4.884 105.31 4.884ZM120.703 9.798C120.703 10.158 120.679 10.482 120.631 10.77H113.341C113.401 11.49 113.653 12.054 114.097 12.462C114.541 12.87 115.087 13.074 115.735 13.074C116.671 13.074 117.337 12.672 117.733 11.868H120.451C120.163 12.828 119.611 13.62 118.795 14.244C117.979 14.856 116.977 15.162 115.789 15.162C114.829 15.162 113.965 14.952 113.197 14.532C112.441 14.1 111.847 13.494 111.415 12.714C110.995 11.934 110.785 11.034 110.785 10.014C110.785 8.982 110.995 8.076 111.415 7.296C111.835 6.516 112.423 5.916 113.179 5.496C113.935 5.076 114.805 4.866 115.789 4.866C116.737 4.866 117.583 5.07 118.327 5.478C119.083 5.886 119.665 6.468 120.073 7.224C120.493 7.968 120.703 8.826 120.703 9.798ZM118.093 9.078C118.081 8.43 117.847 7.914 117.391 7.53C116.935 7.134 116.377 6.936 115.717 6.936C115.093 6.936 114.565 7.128 114.133 7.512C113.713 7.884 113.455 8.406 113.359 9.078H118.093ZM128.847 13.002H132.987V15H126.327V2.436H128.847V13.002ZM133.689 9.978C133.689 8.97 133.887 8.076 134.283 7.296C134.691 6.516 135.237 5.916 135.921 5.496C136.617 5.076 137.391 4.866 138.243 4.866C138.987 4.866 139.635 5.016 140.187 5.316C140.751 5.616 141.201 5.994 141.537 6.45V5.028H144.075V15H141.537V13.542C141.213 14.01 140.763 14.4 140.187 14.712C139.623 15.012 138.969 15.162 138.225 15.162C137.385 15.162 136.617 14.946 135.921 14.514C135.237 14.082 134.691 13.476 134.283 12.696C133.887 11.904 133.689 10.998 133.689 9.978ZM141.537 10.014C141.537 9.402 141.417 8.88 141.177 8.448C140.937 8.004 140.613 7.668 140.205 7.44C139.797 7.2 139.359 7.08 138.891 7.08C138.423 7.08 137.991 7.194 137.595 7.422C137.199 7.65 136.875 7.986 136.623 8.43C136.383 8.862 136.263 9.378 136.263 9.978C136.263 10.578 136.383 11.106 136.623 11.562C136.875 12.006 137.199 12.348 137.595 12.588C138.003 12.828 138.435 12.948 138.891 12.948C139.359 12.948 139.797 12.834 140.205 12.606C140.613 12.366 140.937 12.03 141.177 11.598C141.417 11.154 141.537 10.626 141.537 10.014ZM148.804 6.486C149.128 6.006 149.572 5.616 150.136 5.316C150.712 5.016 151.366 4.866 152.098 4.866C152.95 4.866 153.718 5.076 154.402 5.496C155.098 5.916 155.644 6.516 156.04 7.296C156.448 8.064 156.652 8.958 156.652 9.978C156.652 10.998 156.448 11.904 156.04 12.696C155.644 13.476 155.098 14.082 154.402 14.514C153.718 14.946 152.95 15.162 152.098 15.162C151.354 15.162 150.7 15.018 150.136 14.73C149.584 14.43 149.14 14.046 148.804 13.578V15H146.284V1.68H148.804V6.486ZM154.078 9.978C154.078 9.378 153.952 8.862 153.7 8.43C153.46 7.986 153.136 7.65 152.728 7.422C152.332 7.194 151.9 7.08 151.432 7.08C150.976 7.08 150.544 7.2 150.136 7.44C149.74 7.668 149.416 8.004 149.164 8.448C148.924 8.892 148.804 9.414 148.804 10.014C148.804 10.614 148.924 11.136 149.164 11.58C149.416 12.024 149.74 12.366 150.136 12.606C150.544 12.834 150.976 12.948 151.432 12.948C151.9 12.948 152.332 12.828 152.728 12.588C153.136 12.348 153.46 12.006 153.7 11.562C153.952 11.118 154.078 10.59 154.078 9.978Z"/>
</svg>
