<svg viewBox="0 0 375 32" fill="none" xmlns="http://www.w3.org/2000/svg">
<path d="M0 6C0 2.68629 2.68629 0 6 0H369C372.314 0 375 2.68629 375 6V26C375 29.3137 372.314 32 369 32H5.99999C2.68628 32 0 29.3137 0 26V6Z" fill="white"/>
<path d="M40.356 12.537C40.314 12.607 40.2697 12.6607 40.223 12.698C40.1763 12.7307 40.1157 12.747 40.041 12.747C39.9617 12.747 39.8683 12.7073 39.761 12.628C39.6583 12.5487 39.5253 12.4623 39.362 12.369C39.2033 12.271 39.0097 12.1823 38.781 12.103C38.557 12.0237 38.284 11.984 37.962 11.984C37.6587 11.984 37.3903 12.026 37.157 12.11C36.9237 12.1893 36.7277 12.299 36.569 12.439C36.415 12.579 36.2983 12.7447 36.219 12.936C36.1397 13.1227 36.1 13.3257 36.1 13.545C36.1 13.825 36.1677 14.0583 36.303 14.245C36.443 14.427 36.625 14.5833 36.849 14.714C37.0777 14.8447 37.3343 14.959 37.619 15.057C37.9083 15.1503 38.2023 15.2483 38.501 15.351C38.8043 15.4537 39.0983 15.5703 39.383 15.701C39.6723 15.827 39.929 15.988 40.153 16.184C40.3817 16.38 40.5637 16.6203 40.699 16.905C40.839 17.1897 40.909 17.5397 40.909 17.955C40.909 18.3937 40.8343 18.8067 40.685 19.194C40.5357 19.5767 40.3163 19.9103 40.027 20.195C39.7423 20.4797 39.39 20.7037 38.97 20.867C38.5547 21.0303 38.081 21.112 37.549 21.112C36.9003 21.112 36.3077 20.9953 35.771 20.762C35.239 20.524 34.784 20.2043 34.406 19.803L34.798 19.159C34.8353 19.1077 34.8797 19.0657 34.931 19.033C34.987 18.9957 35.0477 18.977 35.113 18.977C35.211 18.977 35.323 19.0307 35.449 19.138C35.575 19.2407 35.7313 19.355 35.918 19.481C36.1093 19.607 36.338 19.7237 36.604 19.831C36.8747 19.9337 37.2037 19.985 37.591 19.985C37.913 19.985 38.2 19.9407 38.452 19.852C38.704 19.7633 38.9163 19.6397 39.089 19.481C39.2663 19.3177 39.4017 19.124 39.495 18.9C39.5883 18.676 39.635 18.4263 39.635 18.151C39.635 17.8477 39.565 17.6003 39.425 17.409C39.2897 17.213 39.11 17.0497 38.886 16.919C38.662 16.7883 38.4053 16.6787 38.116 16.59C37.8313 16.4967 37.5373 16.4033 37.234 16.31C36.9353 16.212 36.6413 16.1 36.352 15.974C36.0673 15.848 35.813 15.6847 35.589 15.484C35.365 15.2833 35.183 15.0337 35.043 14.735C34.9077 14.4317 34.84 14.0583 34.84 13.615C34.84 13.2603 34.9077 12.9173 35.043 12.586C35.183 12.2547 35.3837 11.9607 35.645 11.704C35.9063 11.4473 36.2283 11.242 36.611 11.088C36.9983 10.934 37.4417 10.857 37.941 10.857C38.501 10.857 39.012 10.9457 39.474 11.123C39.936 11.3003 40.3397 11.557 40.685 11.893L40.356 12.537ZM45.1688 13.797C45.5935 13.797 45.9855 13.8693 46.3448 14.014C46.7042 14.154 47.0145 14.3593 47.2758 14.63C47.5372 14.896 47.7402 15.2273 47.8848 15.624C48.0342 16.016 48.1088 16.464 48.1088 16.968C48.1088 17.164 48.0878 17.2947 48.0458 17.36C48.0038 17.4253 47.9245 17.458 47.8078 17.458H43.0898C43.0992 17.906 43.1598 18.2957 43.2718 18.627C43.3838 18.9583 43.5378 19.236 43.7338 19.46C43.9298 19.6793 44.1632 19.845 44.4338 19.957C44.7045 20.0643 45.0078 20.118 45.3438 20.118C45.6565 20.118 45.9248 20.083 46.1488 20.013C46.3775 19.9383 46.5735 19.859 46.7368 19.775C46.9002 19.691 47.0355 19.614 47.1428 19.544C47.2548 19.4693 47.3505 19.432 47.4298 19.432C47.5325 19.432 47.6118 19.4717 47.6678 19.551L48.0178 20.006C47.8638 20.1927 47.6795 20.356 47.4648 20.496C47.2502 20.6313 47.0192 20.7433 46.7718 20.832C46.5292 20.9207 46.2772 20.986 46.0158 21.028C45.7545 21.0747 45.4955 21.098 45.2388 21.098C44.7488 21.098 44.2962 21.0163 43.8808 20.853C43.4702 20.685 43.1132 20.4423 42.8098 20.125C42.5112 19.803 42.2778 19.4063 42.1098 18.935C41.9418 18.4637 41.8578 17.9223 41.8578 17.311C41.8578 16.8163 41.9325 16.3543 42.0818 15.925C42.2358 15.4957 42.4552 15.1247 42.7398 14.812C43.0245 14.4947 43.3722 14.2473 43.7828 14.07C44.1935 13.888 44.6555 13.797 45.1688 13.797ZM45.1968 14.714C44.5948 14.714 44.1212 14.889 43.7758 15.239C43.4305 15.5843 43.2158 16.065 43.1318 16.681H46.9888C46.9888 16.3917 46.9492 16.128 46.8698 15.89C46.7905 15.6473 46.6738 15.4397 46.5198 15.267C46.3658 15.0897 46.1768 14.9543 45.9528 14.861C45.7335 14.763 45.4815 14.714 45.1968 14.714ZM54.8276 21H54.2746C54.1533 21 54.0553 20.9813 53.9806 20.944C53.906 20.9067 53.857 20.8273 53.8336 20.706L53.6936 20.048C53.507 20.216 53.325 20.3677 53.1476 20.503C52.9703 20.6337 52.7836 20.7457 52.5876 20.839C52.3916 20.9277 52.1816 20.9953 51.9576 21.042C51.7383 21.0887 51.4933 21.112 51.2226 21.112C50.9473 21.112 50.6883 21.0747 50.4456 21C50.2076 20.9207 50 20.804 49.8226 20.65C49.6453 20.496 49.503 20.3023 49.3956 20.069C49.293 19.831 49.2416 19.551 49.2416 19.229C49.2416 18.949 49.3186 18.6807 49.4726 18.424C49.6266 18.1627 49.874 17.9317 50.2146 17.731C50.56 17.5303 51.0103 17.367 51.5656 17.241C52.121 17.1103 52.8 17.0357 53.6026 17.017V16.464C53.6026 15.9133 53.4836 15.498 53.2456 15.218C53.0123 14.9333 52.6646 14.791 52.2026 14.791C51.8993 14.791 51.6426 14.8307 51.4326 14.91C51.2273 14.9847 51.0476 15.071 50.8936 15.169C50.7443 15.2623 50.6136 15.3487 50.5016 15.428C50.3943 15.5027 50.287 15.54 50.1796 15.54C50.0956 15.54 50.021 15.519 49.9556 15.477C49.895 15.4303 49.846 15.3743 49.8086 15.309L49.5846 14.91C49.9766 14.532 50.399 14.2497 50.8516 14.063C51.3043 13.8763 51.806 13.783 52.3566 13.783C52.7533 13.783 53.1056 13.8483 53.4136 13.979C53.7216 14.1097 53.9806 14.2917 54.1906 14.525C54.4006 14.7583 54.5593 15.0407 54.6666 15.372C54.774 15.7033 54.8276 16.0673 54.8276 16.464V21ZM51.5936 20.237C51.813 20.237 52.0136 20.216 52.1956 20.174C52.3776 20.1273 52.548 20.0643 52.7066 19.985C52.87 19.901 53.024 19.8007 53.1686 19.684C53.318 19.5673 53.4626 19.4343 53.6026 19.285V17.808C53.0286 17.8267 52.541 17.8733 52.1396 17.948C51.7383 18.018 51.4116 18.1113 51.1596 18.228C50.9076 18.3447 50.7233 18.4823 50.6066 18.641C50.4946 18.7997 50.4386 18.977 50.4386 19.173C50.4386 19.3597 50.469 19.5207 50.5296 19.656C50.5903 19.7913 50.672 19.9033 50.7746 19.992C50.8773 20.076 50.9986 20.139 51.1386 20.181C51.2786 20.2183 51.4303 20.237 51.5936 20.237ZM56.6313 21V13.909H57.3453C57.4807 13.909 57.574 13.9347 57.6253 13.986C57.6767 14.0373 57.7117 14.126 57.7303 14.252L57.8143 15.358C58.057 14.8633 58.3557 14.4783 58.7103 14.203C59.0697 13.923 59.4897 13.783 59.9703 13.783C60.1663 13.783 60.3437 13.8063 60.5023 13.853C60.661 13.895 60.808 13.9557 60.9433 14.035L60.7823 14.966C60.7497 15.0827 60.6773 15.141 60.5653 15.141C60.5 15.141 60.3997 15.12 60.2643 15.078C60.129 15.0313 59.94 15.008 59.6973 15.008C59.2633 15.008 58.8993 15.134 58.6053 15.386C58.316 15.638 58.0733 16.0043 57.8773 16.485V21H56.6313ZM67.0308 15.169C66.9935 15.2203 66.9561 15.26 66.9188 15.288C66.8815 15.316 66.8278 15.33 66.7578 15.33C66.6878 15.33 66.6108 15.302 66.5268 15.246C66.4475 15.1853 66.3448 15.12 66.2188 15.05C66.0928 14.98 65.9388 14.917 65.7568 14.861C65.5795 14.8003 65.3601 14.77 65.0988 14.77C64.7535 14.77 64.4478 14.833 64.1818 14.959C63.9158 15.0803 63.6918 15.2577 63.5098 15.491C63.3325 15.7243 63.1971 16.0067 63.1038 16.338C63.0151 16.6693 62.9708 17.0403 62.9708 17.451C62.9708 17.8803 63.0198 18.263 63.1178 18.599C63.2158 18.9303 63.3535 19.2103 63.5308 19.439C63.7081 19.663 63.9228 19.8357 64.1748 19.957C64.4315 20.0737 64.7185 20.132 65.0358 20.132C65.3391 20.132 65.5888 20.097 65.7848 20.027C65.9808 19.9523 66.1441 19.8707 66.2748 19.782C66.4055 19.6933 66.5128 19.614 66.5968 19.544C66.6808 19.4693 66.7648 19.432 66.8488 19.432C66.9561 19.432 67.0355 19.4717 67.0868 19.551L67.4368 20.006C67.1288 20.384 66.7438 20.6617 66.2818 20.839C65.8198 21.0117 65.3321 21.098 64.8188 21.098C64.3755 21.098 63.9625 21.0163 63.5798 20.853C63.2018 20.6897 62.8728 20.454 62.5928 20.146C62.3128 19.8333 62.0911 19.4507 61.9278 18.998C61.7691 18.5453 61.6898 18.0297 61.6898 17.451C61.6898 16.9237 61.7621 16.436 61.9068 15.988C62.0561 15.54 62.2708 15.155 62.5508 14.833C62.8355 14.5063 63.1855 14.252 63.6008 14.07C64.0161 13.888 64.4921 13.797 65.0288 13.797C65.5235 13.797 65.9621 13.8787 66.3448 14.042C66.7275 14.2007 67.0658 14.427 67.3598 14.721L67.0308 15.169ZM68.645 21V10.689H69.891V14.861C70.1943 14.539 70.5303 14.2823 70.899 14.091C71.2676 13.895 71.6923 13.797 72.173 13.797C72.5603 13.797 72.901 13.8623 73.195 13.993C73.4936 14.119 73.741 14.301 73.937 14.539C74.1376 14.7723 74.2893 15.0547 74.392 15.386C74.4946 15.7173 74.546 16.0837 74.546 16.485V21H73.3V16.485C73.3 15.9483 73.1763 15.533 72.929 15.239C72.6863 14.9403 72.313 14.791 71.809 14.791C71.4403 14.791 71.095 14.8797 70.773 15.057C70.4556 15.2343 70.1616 15.4747 69.891 15.778V21H68.645ZM75.9343 20.23C75.9343 20.1087 75.9553 19.9943 75.9973 19.887C76.0439 19.7797 76.1046 19.6863 76.1793 19.607C76.2586 19.5277 76.3519 19.4647 76.4593 19.418C76.5666 19.3713 76.6809 19.348 76.8023 19.348C76.9236 19.348 77.0379 19.3713 77.1453 19.418C77.2526 19.4647 77.3459 19.5277 77.4253 19.607C77.5046 19.6863 77.5653 19.7797 77.6073 19.887C77.6539 19.9943 77.6773 20.1087 77.6773 20.23C77.6773 20.356 77.6539 20.4727 77.6073 20.58C77.5653 20.6827 77.5046 20.7737 77.4253 20.853C77.3459 20.9323 77.2526 20.993 77.1453 21.035C77.0379 21.0817 76.9236 21.105 76.8023 21.105C76.6809 21.105 76.5666 21.0817 76.4593 21.035C76.3519 20.993 76.2586 20.9323 76.1793 20.853C76.1046 20.7737 76.0439 20.6827 75.9973 20.58C75.9553 20.4727 75.9343 20.356 75.9343 20.23ZM83.1373 20.23C83.1373 20.1087 83.1583 19.9943 83.2003 19.887C83.2469 19.7797 83.3076 19.6863 83.3823 19.607C83.4616 19.5277 83.5549 19.4647 83.6623 19.418C83.7696 19.3713 83.8839 19.348 84.0053 19.348C84.1266 19.348 84.2409 19.3713 84.3483 19.418C84.4556 19.4647 84.5489 19.5277 84.6283 19.607C84.7076 19.6863 84.7683 19.7797 84.8103 19.887C84.8569 19.9943 84.8803 20.1087 84.8803 20.23C84.8803 20.356 84.8569 20.4727 84.8103 20.58C84.7683 20.6827 84.7076 20.7737 84.6283 20.853C84.5489 20.9323 84.4556 20.993 84.3483 21.035C84.2409 21.0817 84.1266 21.105 84.0053 21.105C83.8839 21.105 83.7696 21.0817 83.6623 21.035C83.5549 20.993 83.4616 20.9323 83.3823 20.853C83.3076 20.7737 83.2469 20.6827 83.2003 20.58C83.1583 20.4727 83.1373 20.356 83.1373 20.23ZM79.5323 20.23C79.5323 20.1087 79.5533 19.9943 79.5953 19.887C79.6419 19.7797 79.7026 19.6863 79.7773 19.607C79.8566 19.5277 79.9499 19.4647 80.0573 19.418C80.1646 19.3713 80.2789 19.348 80.4003 19.348C80.5216 19.348 80.6359 19.3713 80.7433 19.418C80.8506 19.4647 80.9439 19.5277 81.0233 19.607C81.1026 19.6863 81.1633 19.7797 81.2053 19.887C81.2519 19.9943 81.2753 20.1087 81.2753 20.23C81.2753 20.356 81.2519 20.4727 81.2053 20.58C81.1633 20.6827 81.1026 20.7737 81.0233 20.853C80.9439 20.9323 80.8506 20.993 80.7433 21.035C80.6359 21.0817 80.5216 21.105 80.4003 21.105C80.2789 21.105 80.1646 21.0817 80.0573 21.035C79.9499 20.993 79.8566 20.9323 79.7773 20.853C79.7026 20.7737 79.6419 20.6827 79.5953 20.58C79.5533 20.4727 79.5323 20.356 79.5323 20.23Z" fill="#9AA6AC"/>
<path fill-rule="evenodd" clip-rule="evenodd" d="M14 10.0008C12.9391 10.0008 11.9217 10.4222 11.1716 11.1723C10.4214 11.9225 10 12.9399 10 14.0008C10 15.0616 10.4214 16.079 11.1716 16.8292C11.9217 17.5793 12.9391 18.0008 14 18.0008C15.0609 18.0008 16.0783 17.5793 16.8284 16.8292C17.5786 16.079 18 15.0616 18 14.0008C18 12.9399 17.5786 11.9225 16.8284 11.1723C16.0783 10.4222 15.0609 10.0008 14 10.0008ZM8 14.0008C7.99988 13.0565 8.22264 12.1255 8.65017 11.2835C9.0777 10.4415 9.69792 9.71236 10.4604 9.15529C11.2229 8.59822 12.1061 8.22898 13.0381 8.0776C13.9702 7.92622 14.9249 7.99698 15.8245 8.28412C16.724 8.57126 17.5432 9.06667 18.2152 9.73006C18.8872 10.3935 19.3931 11.2061 19.6919 12.1019C19.9906 12.9977 20.0737 13.9514 19.9343 14.8853C19.795 15.8193 19.4372 16.7072 18.89 17.4768L23.707 22.2938C23.8892 22.4824 23.99 22.735 23.9877 22.9972C23.9854 23.2594 23.8802 23.5102 23.6948 23.6956C23.5094 23.881 23.2586 23.9862 22.9964 23.9884C22.7342 23.9907 22.4816 23.8899 22.293 23.7078L17.477 18.8918C16.5794 19.53 15.5233 19.9089 14.4247 19.9869C13.326 20.0648 12.2271 19.8389 11.2483 19.3337C10.2695 18.8286 9.44869 18.0638 8.87572 17.1231C8.30276 16.1824 7.99979 15.1022 8 14.0008Z" fill="#B0BABF"/>
<path d="M6 1H369V-1H6V1ZM374 6V26H376V6H374ZM369 31H5.99999V33H369V31ZM1 26V6H-1V26H1ZM5.99999 31C3.23857 31 1 28.7614 1 26H-1C-1 29.866 2.13399 33 5.99999 33V31ZM374 26C374 28.7614 371.761 31 369 31V33C372.866 33 376 29.866 376 26H374ZM369 1C371.761 1 374 3.23857 374 6H376C376 2.13401 372.866 -1 369 -1V1ZM6 -1C2.13401 -1 -1 2.13401 -1 6H1C1 3.23858 3.23858 1 6 1V-1Z" fill="#DDE2E4"/>
</svg>
